<svg xmlns="http://www.w3.org/2000/svg" id="Layer_1" viewBox="0 0 344.30349 79.899998" width="367.257" height="85.227"><style id="style3483">.st0{fill:url(#symbol_1_)}.st1{fill:url(#SVGID_1_)}.st2{fill:url(#SVGID_2_)}.st3{fill:url(#SVGID_3_)}.st4{fill:url(#SVGID_4_)}.st5{fill:url(#SVGID_5_)}.st6{fill:url(#SVGID_6_)}.st7{fill:url(#SVGID_7_)}</style><g id="influxdb_logo" transform="translate(-163.797 -85.1)"><linearGradient id="symbol_1_" gradientUnits="userSpaceOnUse" x1="205.324" y1="125" x2="483.088" y2="125"><stop offset="0" id="stop3487" stop-color="#4591ed"/><stop offset="1" id="stop3489" stop-color="#00c9ff"/></linearGradient><path id="symbol_2_" class="st0" d="M242.5 133.3l-7.6-33.2c-.4-1.8-2.1-3.6-3.9-4.1l-34.9-10.7c-.5-.1-1-.2-1.5-.2-1.5 0-3.1.6-4 1.5l-25 23.2c-1.3 1.2-2.1 3.6-1.7 5.4l8.1 35.5c.4 1.8 2.1 3.6 3.9 4.1l32.6 10c.5.1 1 .2 1.5.2 1.5 0 3.1-.6 4-1.5l26.7-24.8c1.5-1.2 2.2-3.6 1.8-5.4zm-42.8-40.2l23.9 7.3c.9.3.9.7 0 .9l-12.6 2.9c-1 .2-2.3-.2-2.9-.9l-8.8-9.5c-.7-.6-.5-.9.4-.7zm14.9 42.9c.2 1-.4 1.5-1.3 1.2l-25.8-7.9c-.9-.3-1.1-1.1-.4-1.7l19.8-18.4c.7-.7 1.5-.4 1.7.5l6 26.3zm-42.5-23.4l21-19.5c.7-.7 1.8-.6 2.5.1l10.5 11.3c.7.7.6 1.8-.1 2.5l-21 19.5c-.7.7-1.8.6-2.5-.1L172 115.1c-.6-.7-.6-1.8.1-2.5zm5.1 31l-5.6-24.3c-.2-1 .1-1.1.8-.4l8.8 9.5c.7.7 1 2.1.7 3l-3.8 12.3c-.2.8-.7.8-.9-.1zm30.7 14.1l-27.3-8.4c-.9-.3-1.5-1.3-1.2-2.2l4.5-14.8c.3-.9 1.3-1.5 2.2-1.2l27.3 8.4c.9.3 1.5 1.3 1.2 2.2l-4.5 14.8c-.3 1-1.3 1.5-2.2 1.2zm24.3-19.9l-18.3 17c-.7.7-1.1.4-.8-.5l3.8-12.3c.3-.9 1.3-1.9 2.3-2.1l12.6-2.9c.9-.2 1.1.2.4.8zm2-3.6l-15.1 3.4c-1 .2-1.9-.4-2.1-1.3l-6.4-27.9c-.2-1 .4-1.9 1.3-2.1l15.1-3.4c1-.2 1.9.4 2.1 1.3l6.4 27.9c.2.9-.4 1.9-1.3 2.1z" fill="url(#symbol_1_)"/><g id="type_2_"><g id="g3493"><linearGradient id="SVGID_1_" gradientUnits="userSpaceOnUse" x1="205.324" y1="120.538" x2="483.088" y2="120.538"><stop offset="0" id="stop3496" stop-color="#4591ed"/><stop offset="1" id="stop3498" stop-color="#00c9ff"/></linearGradient><path class="st1" d="M273.5 111.4l8.9-1.2-6.3 35.8h-8.7l6.1-34.6zm2.6-15.1l8.9-1.2-1.7 9.8-8.9 1.3 1.7-9.9z" id="path3500" fill="url(#SVGID_1_)"/><linearGradient id="SVGID_2_" gradientUnits="userSpaceOnUse" x1="205.324" y1="127.991" x2="483.088" y2="127.991"><stop offset="0" id="stop3503" stop-color="#4591ed"/><stop offset="1" id="stop3505" stop-color="#00c9ff"/></linearGradient><path class="st2" d="M310.2 120.9c.1-.4.1-.8.1-.9 0-.9-.4-1.5-1.8-1.5-2.3 0-7.2 2.2-10.5 4.1l-4.1 23.4h-8.7l6.1-34.5 7.5-1.3-.1 4.3c4.6-2.5 10.1-4.4 14.3-4.4 4.8 0 6.4 3.2 6.4 7 0 1.4-.1 2.3-.4 3.5l-4.5 25.5h-8.7l4.4-25.2z" id="path3507" fill="url(#SVGID_2_)"/><linearGradient id="SVGID_3_" gradientUnits="userSpaceOnUse" x1="205.324" y1="127.918" x2="483.088" y2="127.918"><stop offset="0" id="stop3510" stop-color="#4591ed"/><stop offset="1" id="stop3512" stop-color="#00c9ff"/></linearGradient><path class="st3" d="M347.4 117.8h-8.1l-5.3 29.8c-1 5.7-3.1 9.3-7.7 13.3l-5.6-5.2c2.8-2.7 4.1-5.1 4.7-8.9l5.1-29h-5.4l1.2-7.1h5.4l.9-5.1c1.3-7.5 4.3-10.8 13.2-10.8 2.9 0 6.7.4 11.1 1.4l8.9-1.2-9 50.9h-8.7l7.6-43.1c-3.5-.7-7-1.1-9.8-1.1-3 0-4.2 1-4.6 3.5l-.9 5.4h8.8l-1.8 7.2z" id="path3514" fill="url(#SVGID_3_)"/><linearGradient id="SVGID_4_" gradientUnits="userSpaceOnUse" x1="205.324" y1="128.425" x2="483.088" y2="128.425"><stop offset="0" id="stop3517" stop-color="#4591ed"/><stop offset="1" id="stop3519" stop-color="#00c9ff"/></linearGradient><path class="st4" d="M376.1 135.8c-.1.5-.1.8-.1.9 0 .9.4 1.5 1.8 1.5 2.3 0 7.2-2.2 10.5-4.1l4-22.8 8.9-1.2L395 146h-7.4l.1-3.7c-4.6 2.5-10.1 4.4-14.3 4.4-4.8 0-6.4-3.2-6.4-7 0-1.4.1-2.3.4-3.5l4.3-24.8 8.9-1.2-4.5 25.6z" id="path3521" fill="url(#SVGID_4_)"/><linearGradient id="SVGID_5_" gradientUnits="userSpaceOnUse" x1="205.324" y1="128.063" x2="483.088" y2="128.063"><stop offset="0" id="stop3524" stop-color="#4591ed"/><stop offset="1" id="stop3526" stop-color="#00c9ff"/></linearGradient><path class="st5" d="M414.9 128.2l-7.6-16.6 8.1-1.5 5.3 12.5 8.7-11.9h9.3l-14.4 18.6L432 146h-8.8l-4.8-10.2-8.5 10.2h-9.3l14.3-17.8z" id="path3528" fill="url(#SVGID_5_)"/><linearGradient id="SVGID_6_" gradientUnits="userSpaceOnUse" x1="205.324" y1="120.9" x2="483.088" y2="120.9"><stop offset="0" id="stop3531" stop-color="#4591ed"/><stop offset="1" id="stop3533" stop-color="#00c9ff"/></linearGradient><path class="st6" d="M465.3 146h-7.4v-3.9c-3 2.7-6.8 4.6-12 4.6-6.1 0-8.2-3.3-8.2-8 0-1.2.1-2.4.4-3.7l1.8-10.3c1.6-9 3.3-14.7 17.1-14.7 1.3 0 3.8.2 5.8.7l2.5-14.3 8.9-1.2-8.9 50.8zm-3.7-28.2c-1.6-.4-3.9-.4-5.1-.4-5.6 0-7 2.2-7.8 6.9l-2.2 12.4c-.1.4-.1.7-.1.9 0 1.3.9 1.9 2.5 1.9 3.7 0 8-3 9.8-5.3l2.9-16.4z" id="path3535" fill="url(#SVGID_6_)"/><linearGradient id="SVGID_7_" gradientUnits="userSpaceOnUse" x1="205.324" y1="120.9" x2="483.088" y2="120.9"><stop offset="0" id="stop3538" stop-color="#4591ed"/><stop offset="1" id="stop3540" stop-color="#00c9ff"/></linearGradient><path class="st7" d="M483.1 96.3l8.9-1.2-3.2 18c3.9-2.2 7.6-3.1 11.1-3.1 6.1 0 8.2 3.3 8.2 8 0 1.2-.1 2.4-.4 3.7L506 132c-1.9 10.6-5.5 14.7-18.2 14.7-3.3 0-9.7-1.1-13.2-2.3l8.5-48.1zm1.1 42.6c1.6.3 3.3.5 5.1.5 5.6 0 7-2.3 7.8-6.9l2.2-12.4c.1-.4.1-.7.1-.9 0-1.3-.9-1.9-2.5-1.9-2.7 0-6.4 1.2-9.5 3.3l-3.2 18.3z" id="path3542" fill="url(#SVGID_7_)"/></g></g></g></svg>