<?xml version="1.0" encoding="UTF-8" standalone="no"?>
<!-- Created with svg-rocco-library -->
<svg
  xmlns:svg="http://www.w3.org/2000/svg"
  xmlns="http://www.w3.org/2000/svg"
  version="1.0"
  width="800"
  height="800"
  id="rocco">
<g id="edge_layer1" style="stroke:#000000;stroke-width:1;stroke-opacity:1;">
<line x1="400.0" y1="792.0" x2="534.1" y2="768.4"/>
<line x1="400.0" y1="792.0" x2="652.0" y2="700.3"/>
<line x1="400.0" y1="792.0" x2="739.5" y2="596.0"/>
<line x1="400.0" y1="792.0" x2="786.0" y2="468.1"/>
<line x1="400.0" y1="792.0" x2="786.0" y2="331.9"/>
<line x1="400.0" y1="792.0" x2="739.5" y2="204.0"/>
<line x1="400.0" y1="792.0" x2="652.0" y2=" 99.7"/>
<line x1="400.0" y1="792.0" x2="534.1" y2=" 31.6"/>
<line x1="400.0" y1="792.0" x2="400.0" y2="  8.0"/>
<line x1="400.0" y1="792.0" x2="265.9" y2=" 31.6"/>
<line x1="400.0" y1="792.0" x2="148.0" y2=" 99.7"/>
<line x1="400.0" y1="792.0" x2=" 60.5" y2="204.0"/>
<line x1="400.0" y1="792.0" x2=" 14.0" y2="331.9"/>
<line x1="400.0" y1="792.0" x2=" 14.0" y2="468.1"/>
<line x1="400.0" y1="792.0" x2=" 60.5" y2="596.0"/>
<line x1="400.0" y1="792.0" x2="148.0" y2="700.3"/>
<line x1="400.0" y1="792.0" x2="265.9" y2="768.4"/>
<line x1="534.1" y1="768.4" x2="652.0" y2="700.3"/>
<line x1="534.1" y1="768.4" x2="739.5" y2="596.0"/>
<line x1="534.1" y1="768.4" x2="786.0" y2="468.1"/>
<line x1="534.1" y1="768.4" x2="786.0" y2="331.9"/>
<line x1="534.1" y1="768.4" x2="739.5" y2="204.0"/>
<line x1="534.1" y1="768.4" x2="652.0" y2=" 99.7"/>
<line x1="534.1" y1="768.4" x2="534.1" y2=" 31.6"/>
<line x1="534.1" y1="768.4" x2="400.0" y2="  8.0"/>
<line x1="534.1" y1="768.4" x2="265.9" y2=" 31.6"/>
<line x1="534.1" y1="768.4" x2="148.0" y2=" 99.7"/>
<line x1="534.1" y1="768.4" x2=" 60.5" y2="204.0"/>
<line x1="534.1" y1="768.4" x2=" 14.0" y2="331.9"/>
<line x1="534.1" y1="768.4" x2=" 14.0" y2="468.1"/>
<line x1="534.1" y1="768.4" x2=" 60.5" y2="596.0"/>
<line x1="534.1" y1="768.4" x2="148.0" y2="700.3"/>
<line x1="534.1" y1="768.4" x2="265.9" y2="768.4"/>
<line x1="652.0" y1="700.3" x2="739.5" y2="596.0"/>
<line x1="652.0" y1="700.3" x2="786.0" y2="468.1"/>
<line x1="652.0" y1="700.3" x2="786.0" y2="331.9"/>
<line x1="652.0" y1="700.3" x2="739.5" y2="204.0"/>
<line x1="652.0" y1="700.3" x2="652.0" y2=" 99.7"/>
<line x1="652.0" y1="700.3" x2="534.1" y2=" 31.6"/>
<line x1="652.0" y1="700.3" x2="400.0" y2="  8.0"/>
<line x1="652.0" y1="700.3" x2="265.9" y2=" 31.6"/>
<line x1="652.0" y1="700.3" x2="148.0" y2=" 99.7"/>
<line x1="652.0" y1="700.3" x2=" 60.5" y2="204.0"/>
<line x1="652.0" y1="700.3" x2=" 14.0" y2="331.9"/>
<line x1="652.0" y1="700.3" x2=" 14.0" y2="468.1"/>
<line x1="652.0" y1="700.3" x2=" 60.5" y2="596.0"/>
<line x1="652.0" y1="700.3" x2="148.0" y2="700.3"/>
<line x1="652.0" y1="700.3" x2="265.9" y2="768.4"/>
<line x1="739.5" y1="596.0" x2="786.0" y2="468.1"/>
<line x1="739.5" y1="596.0" x2="786.0" y2="331.9"/>
<line x1="739.5" y1="596.0" x2="739.5" y2="204.0"/>
<line x1="739.5" y1="596.0" x2="652.0" y2=" 99.7"/>
<line x1="739.5" y1="596.0" x2="534.1" y2=" 31.6"/>
<line x1="739.5" y1="596.0" x2="400.0" y2="  8.0"/>
<line x1="739.5" y1="596.0" x2="265.9" y2=" 31.6"/>
<line x1="739.5" y1="596.0" x2="148.0" y2=" 99.7"/>
<line x1="739.5" y1="596.0" x2=" 60.5" y2="204.0"/>
<line x1="739.5" y1="596.0" x2=" 14.0" y2="331.9"/>
<line x1="739.5" y1="596.0" x2=" 14.0" y2="468.1"/>
<line x1="739.5" y1="596.0" x2=" 60.5" y2="596.0"/>
<line x1="739.5" y1="596.0" x2="148.0" y2="700.3"/>
<line x1="739.5" y1="596.0" x2="265.9" y2="768.4"/>
<line x1="786.0" y1="468.1" x2="786.0" y2="331.9"/>
<line x1="786.0" y1="468.1" x2="739.5" y2="204.0"/>
<line x1="786.0" y1="468.1" x2="652.0" y2=" 99.7"/>
<line x1="786.0" y1="468.1" x2="534.1" y2=" 31.6"/>
<line x1="786.0" y1="468.1" x2="400.0" y2="  8.0"/>
<line x1="786.0" y1="468.1" x2="265.9" y2=" 31.6"/>
<line x1="786.0" y1="468.1" x2="148.0" y2=" 99.7"/>
<line x1="786.0" y1="468.1" x2=" 60.5" y2="204.0"/>
<line x1="786.0" y1="468.1" x2=" 14.0" y2="331.9"/>
<line x1="786.0" y1="468.1" x2=" 14.0" y2="468.1"/>
<line x1="786.0" y1="468.1" x2=" 60.5" y2="596.0"/>
<line x1="786.0" y1="468.1" x2="148.0" y2="700.3"/>
<line x1="786.0" y1="468.1" x2="265.9" y2="768.4"/>
<line x1="786.0" y1="331.9" x2="739.5" y2="204.0"/>
<line x1="786.0" y1="331.9" x2="652.0" y2=" 99.7"/>
<line x1="786.0" y1="331.9" x2="534.1" y2=" 31.6"/>
<line x1="786.0" y1="331.9" x2="400.0" y2="  8.0"/>
<line x1="786.0" y1="331.9" x2="265.9" y2=" 31.6"/>
<line x1="786.0" y1="331.9" x2="148.0" y2=" 99.7"/>
<line x1="786.0" y1="331.9" x2=" 60.5" y2="204.0"/>
<line x1="786.0" y1="331.9" x2=" 14.0" y2="331.9"/>
<line x1="786.0" y1="331.9" x2=" 14.0" y2="468.1"/>
<line x1="786.0" y1="331.9" x2=" 60.5" y2="596.0"/>
<line x1="786.0" y1="331.9" x2="148.0" y2="700.3"/>
<line x1="786.0" y1="331.9" x2="265.9" y2="768.4"/>
<line x1="739.5" y1="204.0" x2="652.0" y2=" 99.7"/>
<line x1="739.5" y1="204.0" x2="534.1" y2=" 31.6"/>
<line x1="739.5" y1="204.0" x2="400.0" y2="  8.0"/>
<line x1="739.5" y1="204.0" x2="265.9" y2=" 31.6"/>
<line x1="739.5" y1="204.0" x2="148.0" y2=" 99.7"/>
<line x1="739.5" y1="204.0" x2=" 60.5" y2="204.0"/>
<line x1="739.5" y1="204.0" x2=" 14.0" y2="331.9"/>
<line x1="739.5" y1="204.0" x2=" 14.0" y2="468.1"/>
<line x1="739.5" y1="204.0" x2=" 60.5" y2="596.0"/>
<line x1="739.5" y1="204.0" x2="148.0" y2="700.3"/>
<line x1="739.5" y1="204.0" x2="265.9" y2="768.4"/>
<line x1="652.0" y1=" 99.7" x2="534.1" y2=" 31.6"/>
<line x1="652.0" y1=" 99.7" x2="400.0" y2="  8.0"/>
<line x1="652.0" y1=" 99.7" x2="265.9" y2=" 31.6"/>
<line x1="652.0" y1=" 99.7" x2="148.0" y2=" 99.7"/>
<line x1="652.0" y1=" 99.7" x2=" 60.5" y2="204.0"/>
<line x1="652.0" y1=" 99.7" x2=" 14.0" y2="331.9"/>
<line x1="652.0" y1=" 99.7" x2=" 14.0" y2="468.1"/>
<line x1="652.0" y1=" 99.7" x2=" 60.5" y2="596.0"/>
<line x1="652.0" y1=" 99.7" x2="148.0" y2="700.3"/>
<line x1="652.0" y1=" 99.7" x2="265.9" y2="768.4"/>
<line x1="534.1" y1=" 31.6" x2="400.0" y2="  8.0"/>
<line x1="534.1" y1=" 31.6" x2="265.9" y2=" 31.6"/>
<line x1="534.1" y1=" 31.6" x2="148.0" y2=" 99.7"/>
<line x1="534.1" y1=" 31.6" x2=" 60.5" y2="204.0"/>
<line x1="534.1" y1=" 31.6" x2=" 14.0" y2="331.9"/>
<line x1="534.1" y1=" 31.6" x2=" 14.0" y2="468.1"/>
<line x1="534.1" y1=" 31.6" x2=" 60.5" y2="596.0"/>
<line x1="534.1" y1=" 31.6" x2="148.0" y2="700.3"/>
<line x1="534.1" y1=" 31.6" x2="265.9" y2="768.4"/>
<line x1="400.0" y1="  8.0" x2="265.9" y2=" 31.6"/>
<line x1="400.0" y1="  8.0" x2="148.0" y2=" 99.7"/>
<line x1="400.0" y1="  8.0" x2=" 60.5" y2="204.0"/>
<line x1="400.0" y1="  8.0" x2=" 14.0" y2="331.9"/>
<line x1="400.0" y1="  8.0" x2=" 14.0" y2="468.1"/>
<line x1="400.0" y1="  8.0" x2=" 60.5" y2="596.0"/>
<line x1="400.0" y1="  8.0" x2="148.0" y2="700.3"/>
<line x1="400.0" y1="  8.0" x2="265.9" y2="768.4"/>
<line x1="265.9" y1=" 31.6" x2="148.0" y2=" 99.7"/>
<line x1="265.9" y1=" 31.6" x2=" 60.5" y2="204.0"/>
<line x1="265.9" y1=" 31.6" x2=" 14.0" y2="331.9"/>
<line x1="265.9" y1=" 31.6" x2=" 14.0" y2="468.1"/>
<line x1="265.9" y1=" 31.6" x2=" 60.5" y2="596.0"/>
<line x1="265.9" y1=" 31.6" x2="148.0" y2="700.3"/>
<line x1="265.9" y1=" 31.6" x2="265.9" y2="768.4"/>
<line x1="148.0" y1=" 99.7" x2=" 60.5" y2="204.0"/>
<line x1="148.0" y1=" 99.7" x2=" 14.0" y2="331.9"/>
<line x1="148.0" y1=" 99.7" x2=" 14.0" y2="468.1"/>
<line x1="148.0" y1=" 99.7" x2=" 60.5" y2="596.0"/>
<line x1="148.0" y1=" 99.7" x2="148.0" y2="700.3"/>
<line x1="148.0" y1=" 99.7" x2="265.9" y2="768.4"/>
<line x1=" 60.5" y1="204.0" x2=" 14.0" y2="331.9"/>
<line x1=" 60.5" y1="204.0" x2=" 14.0" y2="468.1"/>
<line x1=" 60.5" y1="204.0" x2=" 60.5" y2="596.0"/>
<line x1=" 60.5" y1="204.0" x2="148.0" y2="700.3"/>
<line x1=" 60.5" y1="204.0" x2="265.9" y2="768.4"/>
<line x1=" 14.0" y1="331.9" x2=" 14.0" y2="468.1"/>
<line x1=" 14.0" y1="331.9" x2=" 60.5" y2="596.0"/>
<line x1=" 14.0" y1="331.9" x2="148.0" y2="700.3"/>
<line x1=" 14.0" y1="331.9" x2="265.9" y2="768.4"/>
<line x1=" 14.0" y1="468.1" x2=" 60.5" y2="596.0"/>
<line x1=" 14.0" y1="468.1" x2="148.0" y2="700.3"/>
<line x1=" 14.0" y1="468.1" x2="265.9" y2="768.4"/>
<line x1=" 60.5" y1="596.0" x2="148.0" y2="700.3"/>
<line x1=" 60.5" y1="596.0" x2="265.9" y2="768.4"/>
<line x1="148.0" y1="700.3" x2="265.9" y2="768.4"/>
</g>
<g id="edge_layer2" style="stroke:#000000;stroke-width:1;stroke-opacity:1;">
<line x1="400.0" y1="655.9" x2="564.5" y2="596.0"/>
<line x1="400.0" y1="655.9" x2="621.6" y2="527.9"/>
<line x1="400.0" y1="655.9" x2="652.0" y2="355.6"/>
<line x1="400.0" y1="655.9" x2="621.6" y2="272.1"/>
<line x1="400.0" y1="655.9" x2="564.5" y2="204.0"/>
<line x1="400.0" y1="655.9" x2="487.5" y2="159.6"/>
<line x1="487.5" y1="640.4" x2="621.6" y2="527.9"/>
<line x1="487.5" y1="640.4" x2="652.0" y2="444.4"/>
<line x1="487.5" y1="640.4" x2="621.6" y2="272.1"/>
<line x1="487.5" y1="640.4" x2="564.5" y2="204.0"/>
<line x1="487.5" y1="640.4" x2="487.5" y2="159.6"/>
<line x1="487.5" y1="640.4" x2="400.0" y2="144.1"/>
<line x1="564.5" y1="596.0" x2="652.0" y2="444.4"/>
<line x1="564.5" y1="596.0" x2="652.0" y2="355.6"/>
<line x1="564.5" y1="596.0" x2="564.5" y2="204.0"/>
<line x1="564.5" y1="596.0" x2="487.5" y2="159.6"/>
<line x1="564.5" y1="596.0" x2="400.0" y2="144.1"/>
<line x1="564.5" y1="596.0" x2="312.5" y2="159.6"/>
<line x1="621.6" y1="527.9" x2="652.0" y2="355.6"/>
<line x1="621.6" y1="527.9" x2="621.6" y2="272.1"/>
<line x1="621.6" y1="527.9" x2="487.5" y2="159.6"/>
<line x1="621.6" y1="527.9" x2="400.0" y2="144.1"/>
<line x1="621.6" y1="527.9" x2="312.5" y2="159.6"/>
<line x1="621.6" y1="527.9" x2="235.5" y2="204.0"/>
<line x1="652.0" y1="444.4" x2="621.6" y2="272.1"/>
<line x1="652.0" y1="444.4" x2="564.5" y2="204.0"/>
<line x1="652.0" y1="444.4" x2="400.0" y2="144.1"/>
<line x1="652.0" y1="444.4" x2="312.5" y2="159.6"/>
<line x1="652.0" y1="444.4" x2="235.5" y2="204.0"/>
<line x1="652.0" y1="444.4" x2="178.4" y2="272.1"/>
<line x1="652.0" y1="355.6" x2="564.5" y2="204.0"/>
<line x1="652.0" y1="355.6" x2="487.5" y2="159.6"/>
<line x1="652.0" y1="355.6" x2="312.5" y2="159.6"/>
<line x1="652.0" y1="355.6" x2="235.5" y2="204.0"/>
<line x1="652.0" y1="355.6" x2="178.4" y2="272.1"/>
<line x1="652.0" y1="355.6" x2="148.0" y2="355.6"/>
<line x1="621.6" y1="272.1" x2="487.5" y2="159.6"/>
<line x1="621.6" y1="272.1" x2="400.0" y2="144.1"/>
<line x1="621.6" y1="272.1" x2="235.5" y2="204.0"/>
<line x1="621.6" y1="272.1" x2="178.4" y2="272.1"/>
<line x1="621.6" y1="272.1" x2="148.0" y2="355.6"/>
<line x1="621.6" y1="272.1" x2="148.0" y2="444.4"/>
<line x1="564.5" y1="204.0" x2="400.0" y2="144.1"/>
<line x1="564.5" y1="204.0" x2="312.5" y2="159.6"/>
<line x1="564.5" y1="204.0" x2="178.4" y2="272.1"/>
<line x1="564.5" y1="204.0" x2="148.0" y2="355.6"/>
<line x1="564.5" y1="204.0" x2="148.0" y2="444.4"/>
<line x1="564.5" y1="204.0" x2="178.4" y2="527.9"/>
<line x1="487.5" y1="159.6" x2="312.5" y2="159.6"/>
<line x1="487.5" y1="159.6" x2="235.5" y2="204.0"/>
<line x1="487.5" y1="159.6" x2="148.0" y2="355.6"/>
<line x1="487.5" y1="159.6" x2="148.0" y2="444.4"/>
<line x1="487.5" y1="159.6" x2="178.4" y2="527.9"/>
<line x1="487.5" y1="159.6" x2="235.5" y2="596.0"/>
<line x1="400.0" y1="144.1" x2="235.5" y2="204.0"/>
<line x1="400.0" y1="144.1" x2="178.4" y2="272.1"/>
<line x1="400.0" y1="144.1" x2="148.0" y2="444.4"/>
<line x1="400.0" y1="144.1" x2="178.4" y2="527.9"/>
<line x1="400.0" y1="144.1" x2="235.5" y2="596.0"/>
<line x1="400.0" y1="144.1" x2="312.5" y2="640.4"/>
<line x1="312.5" y1="159.6" x2="178.4" y2="272.1"/>
<line x1="312.5" y1="159.6" x2="148.0" y2="355.6"/>
<line x1="312.5" y1="159.6" x2="178.4" y2="527.9"/>
<line x1="312.5" y1="159.6" x2="235.5" y2="596.0"/>
<line x1="312.5" y1="159.6" x2="312.5" y2="640.4"/>
<line x1="400.0" y1="655.9" x2="312.5" y2="159.6"/>
<line x1="235.5" y1="204.0" x2="148.0" y2="355.6"/>
<line x1="235.5" y1="204.0" x2="148.0" y2="444.4"/>
<line x1="235.5" y1="204.0" x2="235.5" y2="596.0"/>
<line x1="235.5" y1="204.0" x2="312.5" y2="640.4"/>
<line x1="400.0" y1="655.9" x2="235.5" y2="204.0"/>
<line x1="487.5" y1="640.4" x2="235.5" y2="204.0"/>
<line x1="178.4" y1="272.1" x2="148.0" y2="444.4"/>
<line x1="178.4" y1="272.1" x2="178.4" y2="527.9"/>
<line x1="178.4" y1="272.1" x2="312.5" y2="640.4"/>
<line x1="400.0" y1="655.9" x2="178.4" y2="272.1"/>
<line x1="487.5" y1="640.4" x2="178.4" y2="272.1"/>
<line x1="564.5" y1="596.0" x2="178.4" y2="272.1"/>
<line x1="148.0" y1="355.6" x2="178.4" y2="527.9"/>
<line x1="148.0" y1="355.6" x2="235.5" y2="596.0"/>
<line x1="400.0" y1="655.9" x2="148.0" y2="355.6"/>
<line x1="487.5" y1="640.4" x2="148.0" y2="355.6"/>
<line x1="564.5" y1="596.0" x2="148.0" y2="355.6"/>
<line x1="621.6" y1="527.9" x2="148.0" y2="355.6"/>
<line x1="148.0" y1="444.4" x2="235.5" y2="596.0"/>
<line x1="148.0" y1="444.4" x2="312.5" y2="640.4"/>
<line x1="487.5" y1="640.4" x2="148.0" y2="444.4"/>
<line x1="564.5" y1="596.0" x2="148.0" y2="444.4"/>
<line x1="621.6" y1="527.9" x2="148.0" y2="444.4"/>
<line x1="652.0" y1="444.4" x2="148.0" y2="444.4"/>
<line x1="178.4" y1="527.9" x2="312.5" y2="640.4"/>
<line x1="400.0" y1="655.9" x2="178.4" y2="527.9"/>
<line x1="564.5" y1="596.0" x2="178.4" y2="527.9"/>
<line x1="621.6" y1="527.9" x2="178.4" y2="527.9"/>
<line x1="652.0" y1="444.4" x2="178.4" y2="527.9"/>
<line x1="652.0" y1="355.6" x2="178.4" y2="527.9"/>
<line x1="400.0" y1="655.9" x2="235.5" y2="596.0"/>
<line x1="487.5" y1="640.4" x2="235.5" y2="596.0"/>
<line x1="621.6" y1="527.9" x2="235.5" y2="596.0"/>
<line x1="652.0" y1="444.4" x2="235.5" y2="596.0"/>
<line x1="652.0" y1="355.6" x2="235.5" y2="596.0"/>
<line x1="621.6" y1="272.1" x2="235.5" y2="596.0"/>
<line x1="487.5" y1="640.4" x2="312.5" y2="640.4"/>
<line x1="564.5" y1="596.0" x2="312.5" y2="640.4"/>
<line x1="652.0" y1="444.4" x2="312.5" y2="640.4"/>
<line x1="652.0" y1="355.6" x2="312.5" y2="640.4"/>
<line x1="621.6" y1="272.1" x2="312.5" y2="640.4"/>
<line x1="564.5" y1="204.0" x2="312.5" y2="640.4"/>
</g>
<g id="edge_layer3" style="stroke:#000000;stroke-width:1;stroke-opacity:1;">
<line x1="400.0" y1="536.1" x2="517.9" y2="468.1"/>
<line x1="400.0" y1="536.1" x2="534.1" y2="423.6"/>
<line x1="400.0" y1="536.1" x2="517.9" y2="331.9"/>
<line x1="400.0" y1="536.1" x2="487.5" y2="295.7"/>
<line x1="400.0" y1="536.1" x2="446.6" y2="272.1"/>
<line x1="400.0" y1="536.1" x2="353.4" y2="272.1"/>
<line x1="400.0" y1="536.1" x2="312.5" y2="295.7"/>
<line x1="400.0" y1="536.1" x2="282.1" y2="331.9"/>
<line x1="400.0" y1="536.1" x2="265.9" y2="423.6"/>
<line x1="400.0" y1="536.1" x2="282.1" y2="468.1"/>
<line x1="446.6" y1="527.9" x2="534.1" y2="423.6"/>
<line x1="446.6" y1="527.9" x2="534.1" y2="376.4"/>
<line x1="446.6" y1="527.9" x2="487.5" y2="295.7"/>
<line x1="446.6" y1="527.9" x2="446.6" y2="272.1"/>
<line x1="446.6" y1="527.9" x2="400.0" y2="263.9"/>
<line x1="446.6" y1="527.9" x2="312.5" y2="295.7"/>
<line x1="446.6" y1="527.9" x2="282.1" y2="331.9"/>
<line x1="446.6" y1="527.9" x2="265.9" y2="376.4"/>
<line x1="446.6" y1="527.9" x2="282.1" y2="468.1"/>
<line x1="446.6" y1="527.9" x2="312.5" y2="504.3"/>
<line x1="487.5" y1="504.3" x2="534.1" y2="376.4"/>
<line x1="487.5" y1="504.3" x2="517.9" y2="331.9"/>
<line x1="487.5" y1="504.3" x2="446.6" y2="272.1"/>
<line x1="487.5" y1="504.3" x2="400.0" y2="263.9"/>
<line x1="487.5" y1="504.3" x2="353.4" y2="272.1"/>
<line x1="487.5" y1="504.3" x2="282.1" y2="331.9"/>
<line x1="487.5" y1="504.3" x2="265.9" y2="376.4"/>
<line x1="487.5" y1="504.3" x2="265.9" y2="423.6"/>
<line x1="487.5" y1="504.3" x2="312.5" y2="504.3"/>
<line x1="487.5" y1="504.3" x2="353.4" y2="527.9"/>
<line x1="517.9" y1="468.1" x2="517.9" y2="331.9"/>
<line x1="517.9" y1="468.1" x2="487.5" y2="295.7"/>
<line x1="517.9" y1="468.1" x2="400.0" y2="263.9"/>
<line x1="517.9" y1="468.1" x2="353.4" y2="272.1"/>
<line x1="517.9" y1="468.1" x2="312.5" y2="295.7"/>
<line x1="517.9" y1="468.1" x2="265.9" y2="376.4"/>
<line x1="517.9" y1="468.1" x2="265.9" y2="423.6"/>
<line x1="517.9" y1="468.1" x2="282.1" y2="468.1"/>
<line x1="517.9" y1="468.1" x2="353.4" y2="527.9"/>
<line x1="534.1" y1="423.6" x2="487.5" y2="295.7"/>
<line x1="534.1" y1="423.6" x2="446.6" y2="272.1"/>
<line x1="534.1" y1="423.6" x2="353.4" y2="272.1"/>
<line x1="534.1" y1="423.6" x2="312.5" y2="295.7"/>
<line x1="534.1" y1="423.6" x2="282.1" y2="331.9"/>
<line x1="534.1" y1="423.6" x2="265.9" y2="423.6"/>
<line x1="534.1" y1="423.6" x2="282.1" y2="468.1"/>
<line x1="534.1" y1="423.6" x2="312.5" y2="504.3"/>
<line x1="534.1" y1="376.4" x2="446.6" y2="272.1"/>
<line x1="534.1" y1="376.4" x2="400.0" y2="263.9"/>
<line x1="534.1" y1="376.4" x2="312.5" y2="295.7"/>
<line x1="534.1" y1="376.4" x2="282.1" y2="331.9"/>
<line x1="534.1" y1="376.4" x2="265.9" y2="376.4"/>
<line x1="534.1" y1="376.4" x2="282.1" y2="468.1"/>
<line x1="534.1" y1="376.4" x2="312.5" y2="504.3"/>
<line x1="534.1" y1="376.4" x2="353.4" y2="527.9"/>
<line x1="517.9" y1="331.9" x2="400.0" y2="263.9"/>
<line x1="517.9" y1="331.9" x2="353.4" y2="272.1"/>
<line x1="517.9" y1="331.9" x2="282.1" y2="331.9"/>
<line x1="517.9" y1="331.9" x2="265.9" y2="376.4"/>
<line x1="517.9" y1="331.9" x2="265.9" y2="423.6"/>
<line x1="517.9" y1="331.9" x2="312.5" y2="504.3"/>
<line x1="517.9" y1="331.9" x2="353.4" y2="527.9"/>
<line x1="487.5" y1="295.7" x2="353.4" y2="272.1"/>
<line x1="487.5" y1="295.7" x2="312.5" y2="295.7"/>
<line x1="487.5" y1="295.7" x2="265.9" y2="376.4"/>
<line x1="487.5" y1="295.7" x2="265.9" y2="423.6"/>
<line x1="487.5" y1="295.7" x2="282.1" y2="468.1"/>
<line x1="487.5" y1="295.7" x2="353.4" y2="527.9"/>
<line x1="446.6" y1="272.1" x2="312.5" y2="295.7"/>
<line x1="446.6" y1="272.1" x2="282.1" y2="331.9"/>
<line x1="446.6" y1="272.1" x2="265.9" y2="423.6"/>
<line x1="446.6" y1="272.1" x2="282.1" y2="468.1"/>
<line x1="446.6" y1="272.1" x2="312.5" y2="504.3"/>
<line x1="400.0" y1="263.9" x2="282.1" y2="331.9"/>
<line x1="400.0" y1="263.9" x2="265.9" y2="376.4"/>
<line x1="400.0" y1="263.9" x2="282.1" y2="468.1"/>
<line x1="400.0" y1="263.9" x2="312.5" y2="504.3"/>
<line x1="400.0" y1="263.9" x2="353.4" y2="527.9"/>
<line x1="353.4" y1="272.1" x2="265.9" y2="376.4"/>
<line x1="353.4" y1="272.1" x2="265.9" y2="423.6"/>
<line x1="353.4" y1="272.1" x2="312.5" y2="504.3"/>
<line x1="353.4" y1="272.1" x2="353.4" y2="527.9"/>
<line x1="312.5" y1="295.7" x2="265.9" y2="423.6"/>
<line x1="312.5" y1="295.7" x2="282.1" y2="468.1"/>
<line x1="312.5" y1="295.7" x2="353.4" y2="527.9"/>
<line x1="282.1" y1="331.9" x2="282.1" y2="468.1"/>
<line x1="282.1" y1="331.9" x2="312.5" y2="504.3"/>
<line x1="265.9" y1="376.4" x2="312.5" y2="504.3"/>
<line x1="265.9" y1="376.4" x2="353.4" y2="527.9"/>
<line x1="265.9" y1="423.6" x2="353.4" y2="527.9"/>
</g>
<g id="node_layer" style="fill:#FF0000;fill-opacity:1;fill-rule:evenodd;stroke:none">
<circle cx="400.0" cy="792.0" r="5"/>
<circle cx="534.1" cy="768.4" r="5"/>
<circle cx="652.0" cy="700.3" r="5"/>
<circle cx="739.5" cy="596.0" r="5"/>
<circle cx="786.0" cy="468.1" r="5"/>
<circle cx="786.0" cy="331.9" r="5"/>
<circle cx="739.5" cy="204.0" r="5"/>
<circle cx="652.0" cy=" 99.7" r="5"/>
<circle cx="534.1" cy=" 31.6" r="5"/>
<circle cx="400.0" cy="  8.0" r="5"/>
<circle cx="265.9" cy=" 31.6" r="5"/>
<circle cx="148.0" cy=" 99.7" r="5"/>
<circle cx=" 60.5" cy="204.0" r="5"/>
<circle cx=" 14.0" cy="331.9" r="5"/>
<circle cx=" 14.0" cy="468.1" r="5"/>
<circle cx=" 60.5" cy="596.0" r="5"/>
<circle cx="148.0" cy="700.3" r="5"/>
<circle cx="265.9" cy="768.4" r="5"/>
<circle cx="400.0" cy="655.9" r="5"/>
<circle cx="487.5" cy="640.4" r="5"/>
<circle cx="564.5" cy="596.0" r="5"/>
<circle cx="621.6" cy="527.9" r="5"/>
<circle cx="652.0" cy="444.4" r="5"/>
<circle cx="652.0" cy="355.6" r="5"/>
<circle cx="621.6" cy="272.1" r="5"/>
<circle cx="564.5" cy="204.0" r="5"/>
<circle cx="487.5" cy="159.6" r="5"/>
<circle cx="400.0" cy="144.1" r="5"/>
<circle cx="312.5" cy="159.6" r="5"/>
<circle cx="235.5" cy="204.0" r="5"/>
<circle cx="178.4" cy="272.1" r="5"/>
<circle cx="148.0" cy="355.6" r="5"/>
<circle cx="148.0" cy="444.4" r="5"/>
<circle cx="178.4" cy="527.9" r="5"/>
<circle cx="235.5" cy="596.0" r="5"/>
<circle cx="312.5" cy="640.4" r="5"/>
<circle cx="400.0" cy="536.1" r="5"/>
<circle cx="446.6" cy="527.9" r="5"/>
<circle cx="487.5" cy="504.3" r="5"/>
<circle cx="517.9" cy="468.1" r="5"/>
<circle cx="534.1" cy="423.6" r="5"/>
<circle cx="534.1" cy="376.4" r="5"/>
<circle cx="517.9" cy="331.9" r="5"/>
<circle cx="487.5" cy="295.7" r="5"/>
<circle cx="446.6" cy="272.1" r="5"/>
<circle cx="400.0" cy="263.9" r="5"/>
<circle cx="353.4" cy="272.1" r="5"/>
<circle cx="312.5" cy="295.7" r="5"/>
<circle cx="282.1" cy="331.9" r="5"/>
<circle cx="265.9" cy="376.4" r="5"/>
<circle cx="265.9" cy="423.6" r="5"/>
<circle cx="282.1" cy="468.1" r="5"/>
<circle cx="312.5" cy="504.3" r="5"/>
<circle cx="353.4" cy="527.9" r="5"/>
</g>
<g id="doubled center" style="fill:#0000FF;fill-opacity:1;fill-rule:evenodd;stroke:none">
<circle cx="400.0" cy="400.0" r="5"/>
</g>
</svg>
